<svg width="26" height="14" viewBox="0 0 26 14" fill="none" xmlns="http://www.w3.org/2000/svg">
<path d="M26 1.86971C24.3645 1.9193 24.4002 1.91525 24.2153 1.92543L25.1839 0.105565C25.1839 0.105565 22.1605 0.837296 21.394 0.968191C19.381 -0.222129 16.3889 -0.274722 14.2497 0.590254C12.4979 1.29876 11.5577 2.51544 11.8713 3.93753C8.46202 3.62628 5.58951 2.56307 3.32161 0.77074L2.60432 0.203964L2.06834 0.851521C1.39093 1.66978 1.16599 2.60535 1.43477 3.48586C1.54506 3.84709 1.73251 4.19162 1.99217 4.51423L1.37685 4.35736L1.30385 5.03376C1.22986 5.72086 1.57759 6.52293 2.23418 7.1791C2.41905 7.36389 2.65709 7.56683 2.9588 7.76702L2.64082 7.73491L3.02882 8.50997C3.53882 9.52829 4.59808 10.3161 5.97275 10.7541C4.59987 11.1374 3.49081 11.382 1.66785 11.7765L0 12.1372L1.5405 12.6913C2.12785 12.9026 4.20334 13.6082 6.25403 13.8199C10.8124 14.2902 15.9447 13.9072 19.3998 11.86C22.31 10.1357 23.265 7.68284 23.0666 5.13033C23.0366 4.74391 23.1975 4.37511 23.5197 4.09205C24.1649 3.52527 25.996 1.87349 26 1.86971V1.86971ZM22.3015 3.49173C21.7665 3.96167 21.4985 4.56186 21.5465 5.18149C21.7467 7.75619 20.6819 9.75289 18.3814 11.1159C15.6942 12.7081 11.3597 13.3331 6.48988 12.8305C5.60796 12.7396 4.69647 12.5359 3.94209 12.3324C5.47049 11.9864 6.65076 11.6781 8.55684 11.0845L11.2177 10.256L8.27992 10.1323C6.87273 10.073 5.70099 9.62434 4.98073 8.89587C5.36317 8.88125 5.73193 8.84054 6.09911 8.7732L8.901 8.2598L6.0757 7.8046C4.70282 7.5834 3.92027 7.04299 3.50549 6.62851C3.23314 6.35615 3.05521 6.07713 2.94849 5.81991C3.23175 5.86989 3.56203 5.90552 4.09464 5.94023L6.70967 6.11041L4.63776 5.04707C3.14487 4.28102 2.5466 3.13011 2.98518 2.0237C7.64436 5.20302 13.1149 4.96407 13.6655 5.04811C13.5443 4.27358 13.5411 4.27175 13.5094 4.19802C12.8042 2.55798 14.3497 1.72524 15.0467 1.44335C16.5027 0.854653 18.8139 0.765911 20.4147 1.73581C20.7604 1.94514 21.228 2.02749 21.6655 1.95597C22.0583 1.89176 22.3806 1.82377 22.6962 1.74978L22.0393 2.98407L22.8779 2.98447C22.7197 3.1241 22.5298 3.29128 22.3015 3.49173Z" fill="black"/>
</svg>
